HIERARCHY
ROOT Hips
{
	OFFSET 0.00000 0.00000 0.00000
	CHANNELS 6 Xposition Yposition Zposition Zrotation Yrotation Xrotation 
	JOINT LHipJoint
	{
		OFFSET 0 0 0
		CHANNELS 3 Zrotation Yrotation Xrotation
		JOINT LeftHip
		{
			OFFSET 1.29432 -1.88279 0.59910
			CHANNELS 3 Zrotation Yrotation Xrotation
			JOINT LeftKnee
			{
				OFFSET 2.63039 -7.22694 0.00000
				CHANNELS 3 Zrotation Yrotation Xrotation
				JOINT LeftAnkle
				{
					OFFSET 2.70674 -7.43672 0.00000
					CHANNELS 3 Zrotation Yrotation Xrotation
					JOINT LeftToe
					{
						OFFSET 0.15066 -0.41394 2.09027
						CHANNELS 3 Zrotation Yrotation Xrotation
						End Site
						{
							OFFSET 0.00000 -0.00000 1.07518
						}
					}
				}
			}
		}
	}
	JOINT RHipJoint
	{
		OFFSET 0 0 0
		CHANNELS 3 Zrotation Yrotation Xrotation
		JOINT RightHip
		{
			OFFSET -1.37068 -1.88279 0.59910
			CHANNELS 3 Zrotation Yrotation Xrotation
			JOINT RightKnee
			{
				OFFSET -2.57023 -7.06166 0.00000
				CHANNELS 3 Zrotation Yrotation Xrotation
				JOINT RightAnkle
				{
					OFFSET -2.76461 -7.59570 0.00000
					CHANNELS 3 Zrotation Yrotation Xrotation
					JOINT RightToe
					{
						OFFSET -0.24175 -0.64785 2.19719
						CHANNELS 3 Zrotation Yrotation Xrotation
						End Site
						{
							OFFSET -0.00000 -0.00000 1.14803
						}
					}
				}
			}
		}
	}
	JOINT lowerback
	{
		OFFSET 0 0 0
		CHANNELS 3 Zrotation Yrotation Xrotation
		JOINT Chest
		{
			OFFSET -0.03138 2.03983 -0.23106
			CHANNELS 3 Zrotation Yrotation Xrotation
			JOINT Chest2
			{
				OFFSET -0.00325 2.06238 -0.06878
				CHANNELS 3 Zrotation Yrotation Xrotation
				JOINT lowerneck
				{
					OFFSET 0 0 0
					CHANNELS 3 Zrotation Yrotation Xrotation
					JOINT Neck
					{
						OFFSET -0.00002 1.75318 0.18090
						CHANNELS 3 Zrotation Yrotation Xrotation
						JOINT Head
						{
							OFFSET 0.08806 1.75856 -0.25387
							CHANNELS 3 Zrotation Yrotation Xrotation
							End Site
							{
								OFFSET 0.02554 1.78597 -0.10684
							}
						}
					}
				}
				JOINT LeftCollar
				{
					OFFSET 0 0 0
					CHANNELS 3 Zrotation Yrotation Xrotation
					JOINT LeftShoulder
					{
						OFFSET 3.09657 1.33597 -0.04414
CHANNELS 3 Zrotation Xrotation Yrotation
						JOINT LeftElbow
						{
OFFSET 0 -5.342980 -0.000000
CHANNELS 3 Zrotation Xrotation Yrotation
							JOINT LeftWrist
							{
OFFSET 0 -3.672620 -0.000000
CHANNELS 3 Zrotation Xrotation Yrotation
								JOINT lhand
								{
									OFFSET 0 0 0
CHANNELS 3 Zrotation Xrotation Yrotation
									JOINT LFingers
									{
OFFSET 0 -0.599300 -0.000000
CHANNELS 3 Zrotation Xrotation Yrotation
										End Site
										{
OFFSET 0 -0.483170 -0.000000
										}
									}
								}
								JOINT LThumb
								{
OFFSET 0 0.000000 0.000000
CHANNELS 3 Zrotation Xrotation Yrotation
									End Site
									{
OFFSET 0 -0.490550 0.490550
									}
								}
							}
						}
					}
				}
				JOINT RightCollar
				{
					OFFSET 0 0 0
					CHANNELS 3 Zrotation Yrotation Xrotation
					JOINT RightShoulder
					{
						OFFSET -3.16460 1.32273 -0.23382
CHANNELS 3 Zrotation Xrotation Yrotation
						JOINT RightElbow
						{
OFFSET 0 -5.549670 0.033480
CHANNELS 3 Zrotation Xrotation Yrotation
							JOINT RightWrist
							{
OFFSET 0 -3.694010 0.000000
CHANNELS 3 Zrotation Xrotation Yrotation
								JOINT rhand
								{
									OFFSET 0 0 0
CHANNELS 3 Zrotation Xrotation Yrotation
									JOINT RFingers
									{
OFFSET 0 -0.638110 0.000000
CHANNELS 3 Zrotation Xrotation Yrotation
										End Site
										{
OFFSET 0 -0.514460 0.000000
										}
									}
								}
								JOINT RThumb
								{
OFFSET 0 0.000000 0.000000
CHANNELS 3 Zrotation Xrotation Yrotation
									End Site
									{
OFFSET 0 -0.522320 0.522320
									}
								}
							}
						}
					}
				}
			}
		}
	}
}
MOTION
Frames: 11
Frame Time: .0083333
14.4426 15.9998 4.8895 52.5152 -88.0955 -43.3200 0.0000 0.0000 0.0000 -12.1028 5.9085 -48.3244 15.1991 19.4382 75.8357 1.4829 -18.4774 -23.7265 0.3041 -3.5457 -9.8018 0.0000 0.0000 0.0000 9.4208 4.9202 -45.6005 -14.4709 -19.2507 73.6375 -2.6387 12.0500 -29.3091 -0.7809 5.6419 -15.7488 -3.1743 -0.3535 15.6347 -1.1416 -1.2142 3.4265 0.8361 -0.6325 -5.0788 -4.6266 -5.2917 -12.0078 11.0863 -7.8323 9.5159 3.5593 -3.3129 5.4772 -0.0000 0.0000 0.0000 10.6144 3.486 -3.1148 21.8594 -32.8178 6.5095 12.4597 20.6417 -23.5178 0.0 0.0 0.0 -7.1250 0.0 0.0 -17.3248 53.1615 3.5629 -0.0000 0.0000 0.0000 -10.6115 4.6546 1.7182 -23.5073 -34.6389 -7.4246 -31.2179 0.8819 -27.5785 0.0 0.0 0.0 7.1250 0.0 -0.0 -0.5354 -1.4333 -0.5486
14.4486 15.9363 4.8981 51.9219 -88.1734 -42.8043 0.0000 0.0000 0.0000 -11.8543 6.0172 -48.9223 15.6029 19.5300 77.0463 1.4377 -18.6333 -23.5023 0.4178 -4.1490 -11.4963 0.0000 0.0000 0.0000 9.2656 5.2249 -46.2976 -14.8729 -19.3577 74.8536 -2.5999 12.1155 -29.0944 -0.7450 5.5137 -15.3796 -3.2974 -0.3416 16.0385 -0.9566 -1.2276 3.4627 1.1099 -0.6358 -5.2517 -4.8623 -5.3562 -12.2142 11.0932 -7.8524 9.3365 3.5942 -3.3273 5.4673 -0.0000 0.0000 0.0000 10.6423 3.6833 -2.9984 22.0858 -33.0739 6.6326 12.8795 20.5669 -23.7116 0.0 0.0 0.0 -7.1250 0.0 0.0 -17.0106 53.4231 3.6057 -0.0000 0.0000 0.0000 -11.3457 4.7101 1.9175 -23.5937 -34.7316 -7.4738 -31.0234 0.2284 -27.5218 0.0 0.0 0.0 7.1250 0.0 -0.0 -0.4322 -1.3201 -0.4421
14.4618 15.8400 4.9125 53.9131 -88.1988 -44.7589 0.0000 0.0000 0.0000 -11.6914 6.0100 -49.7393 16.0825 19.6280 78.4774 1.2868 -19.3231 -22.8211 0.3771 -3.9437 -10.9184 0.0000 0.0000 0.0000 8.9724 5.0809 -47.2087 -15.4242 -19.4904 76.5111 -2.6058 12.4346 -29.1476 -0.8075 5.7348 -16.0169 -3.2834 -0.3846 16.4171 -0.8935 -1.2954 3.3740 1.1898 -0.6623 -5.5470 -5.2083 -5.3916 -12.0456 11.2383 -7.8259 8.9713 3.7031 -3.3323 5.3430 -0.0000 -0.0000 0.0000 10.6716 4.0418 -2.688 22.3432 -33.3628 6.7736 13.349 20.7783 -24.0531 0.0 0.0 0.0 -7.1250 0.0 0.0 -16.7209 53.8375 3.7131 -0.0000 -0.0000 0.0000 -12.0263 4.7714 2.1672 -23.5436 -34.6779 -7.4453 -31.0015 0.0172 -26.6445 0.0 0.0 0.0 7.1250 0.0 -0.0 -0.5775 -0.3615 -0.5812
14.4743 15.7350 4.9261 60.9943 -87.9486 -51.8071 0.0000 0.0000 0.0000 -11.8622 5.8472 -50.4449 16.5579 19.7135 79.8896 0.9445 -20.8188 -21.3058 0.0592 -1.5699 -4.3185 0.0000 0.0000 0.0000 8.3143 4.7603 -48.2525 -15.9721 -19.6065 78.1485 -2.6684 12.1018 -29.4778 -1.2380 7.0555 -19.8799 -3.3463 -0.3570 16.7267 -1.1057 -1.3027 3.3634 1.0074 -0.6649 -5.7296 -5.3711 -5.5118 -11.9085 11.5320 -7.9573 8.4783 3.8132 -3.4033 5.1991 0.0000 0.0000 0.0000 11.1316 4.1288 -2.8773 22.4620 -33.4952 6.839 13.5169 20.6684 -24.2104 0.0 0.0 0.0 -7.1250 0.0 0.0 -16.6352 54.0205 3.7686 0.0000 0.0000 0.0000 -12.1204 4.9593 1.7496 -23.7488 -34.8975 -7.5624 -31.0567 0.0861 -26.2767 0.0 0.0 0.0 7.1250 0.0 -0.0 -0.6751 0.0251 -0.6748
14.4813 15.6319 4.9377 67.9844 -87.6902 -58.8836 0.0000 0.0000 0.0000 -12.0187 5.7234 -50.9603 17.0449 19.7893 81.3307 1.1359 -20.4262 -22.3277 0.1786 -2.7220 -7.5056 0.0000 0.0000 0.0000 7.5599 4.6902 -49.0904 -16.5452 -19.7114 79.8519 -2.6980 12.3702 -29.6576 -1.4672 7.6548 -21.6703 -3.5704 -0.2662 17.0446 -1.2478 -1.2542 3.4307 0.9777 -0.6411 -5.8302 -5.5610 -5.6376 -11.8455 11.7831 -8.0847 8.0155 3.9133 -3.4727 5.0767 0.0000 0.0000 0.0000 11.6555 4.2706 -3.4956 22.6299 -33.6816 6.932 13.155 19.7324 -24.0381 0.0 0.0 0.0 -7.1250 0.0 0.0 -16.9050 53.7876 3.7349 0.0000 0.0000 0.0000 -12.286 5.1072 1.1193 -24.0366 -35.2029 -7.7276 -30.8381 0.2331 -26.6957 0.0 0.0 0.0 7.1250 0.0 -0.0 -0.4721 -0.3748 -0.4752
14.4933 15.5182 4.9469 68.2673 -87.7812 -59.2685 0.0000 0.0000 0.0000 -11.6761 5.6490 -51.5664 17.5510 19.8556 82.8230 1.3380 -20.0064 -23.3911 0.4301 -4.2089 -11.6650 0.0000 0.0000 0.0000 7.2546 5.0141 -49.8239 -17.1136 -19.7991 81.5336 -2.6638 13.1827 -29.5263 -1.2281 7.0283 -19.7991 -3.5310 -0.1881 17.3884 -1.1436 -1.1577 3.5182 1.0499 -0.5961 -5.9247 -5.6842 -5.8015 -11.9227 11.7849 -8.2427 7.6300 3.9181 -3.5611 4.9905 -0.0000 -0.0000 0.0000 11.9524 4.4454 -4.0338 22.9025 -33.982 7.0837 12.8325 19.0449 -24.0496 0.0 0.0 0.0 -7.1250 0.0 0.0 -17.2289 53.7396 3.7894 -0.0000 -0.0000 0.0000 -12.5429 5.2154 0.4101 -24.2835 -35.4626 -7.8704 -30.7643 0.2731 -27.3795 0.0 0.0 0.0 7.1250 0.0 -0.0 -0.3067 -1.0977 -0.3125
14.5133 15.3949 4.9559 61.5230 -87.9036 -52.5341 0.0000 0.0000 0.0000 -11.1537 5.4629 -52.3201 18.0603 19.9096 84.3205 1.4065 -20.1124 -23.8402 0.6346 -5.0971 -14.1856 0.0000 0.0000 0.0000 7.2072 5.1427 -50.7442 -17.6582 -19.8680 83.1385 -2.6780 13.0924 -29.5968 -1.2991 7.2209 -20.3716 -3.2945 -0.2875 17.8129 -0.9939 -1.2555 3.5395 1.1036 -0.6443 -6.1281 -5.8426 -5.8658 -11.9741 11.8007 -8.2665 7.2769 3.9467 -3.5841 4.9000 0.0000 0.0000 0.0000 11.9995 4.4891 -3.7152 23.0417 -34.1343 7.1617 12.4936 19.0651 -24.0437 0.0 0.0 0.0 -7.1250 0.0 0.0 -17.5593 53.6721 3.8362 0.0000 0.0000 0.0000 -12.8955 5.3469 0.1538 -24.5127 -35.7017 -8.0038 -30.8436 0.1563 -27.4913 0.0 0.0 0.0 7.1250 0.0 -0.0 -0.3329 -1.2396 -0.34
14.5284 15.2766 4.9690 58.3624 -88.0763 -49.3246 0.0000 0.0000 0.0000 -10.6494 5.3959 -53.0895 18.5659 19.9506 85.8038 1.3631 -20.8212 -23.8554 0.5933 -4.9312 -13.7123 0.0000 0.0000 0.0000 7.1044 5.2036 -51.7506 -18.2016 -19.9223 84.7354 -2.7038 12.8803 -29.7232 -1.5721 7.9114 -22.4452 -3.0991 -0.3968 18.1172 -0.8835 -1.3686 3.5374 1.1416 -0.6995 -6.2912 -5.9712 -5.8019 -11.8409 11.8828 -8.1259 6.7960 4.0114 -3.5328 4.7269 -0.0000 -0.0000 0.0000 11.9745 4.5008 -2.9574 23.0942 -34.1917 7.1912 12.0549 19.2346 -23.4766 0.0 0.0 0.0 -7.1250 0.0 0.0 -17.6994 53.0502 3.5948 -0.0000 -0.0000 0.0000 -13.6356 5.273 0.4037 -24.4846 -35.6726 -7.9874 -30.956 0.0522 -27.0509 0.0 0.0 0.0 7.1250 0.0 -0.0 -0.4781 -0.7914 -0.4847
14.5394 15.1623 4.9825 57.5135 -88.4075 -48.4747 0.0000 0.0000 0.0000 -10.0316 5.4159 -53.8346 19.0954 19.9804 87.3544 1.3700 -21.2646 -24.0717 0.5357 -4.6896 -13.0253 0.0000 0.0000 0.0000 7.0095 5.5037 -52.6193 -18.7416 -19.9620 86.3183 -2.6379 13.7861 -29.4386 -1.3552 7.3691 -20.8137 -2.7963 -0.3477 18.3173 -0.8629 -1.2572 3.6253 0.9691 -0.6537 -6.3148 -5.8874 -5.8431 -11.9160 12.0436 -8.1803 6.4413 4.0426 -3.5584 4.6409 -0.0000 0.0000 0.0000 12.2959 4.3338 -2.6258 23.1187 -34.2184 7.205 11.9085 19.4904 -22.8304 0.0 0.0 0.0 -7.1250 0.0 0.0 -17.5219 52.4051 3.2755 -0.0000 0.0000 0.0000 -14.082 5.0345 0.2284 -24.2810 -35.46 -7.869 -31.0846 -0.2086 -27.1991 0.0 0.0 0.0 7.1250 0.0 -0.0 -0.5268 -0.9862 -0.5358
14.5526 15.0451 4.9977 49.1083 -88.6331 -40.1359 0.0000 0.0000 0.0000 -9.3894 5.3448 -54.5806 19.6441 19.9970 88.9594 1.4423 -21.2293 -24.4753 0.5967 -4.9453 -13.7527 0.0000 0.0000 0.0000 7.0060 5.6643 -53.3722 -19.2553 -19.9867 87.8221 -2.5986 14.1192 -29.2573 -1.3545 7.3672 -20.8079 -2.3593 -0.3105 18.7189 -0.8296 -1.1412 3.6979 0.7354 -0.6064 -6.4641 -5.7964 -6.0741 -12.1758 12.1594 -8.4941 6.2234 4.0294 -3.7031 4.6489 -0.0000 -0.0000 0.0000 12.7665 4.1299 -2.6733 23.1005 -34.1986 7.1947 12.0079 19.7005 -22.6998 0.0 0.0 0.0 -7.1250 0.0 0.0 -17.3627 52.2969 3.1974 -0.0000 -0.0000 0.0000 -14.1651 5.0812 -0.3773 -24.4355 -35.6214 -7.9588 -31.1388 0.2212 -26.4048 0.0 0.0 0.0 7.1250 0.0 -0.0 -0.7010 -0.1359 -0.7027
14.5656 14.9247 5.0102 44.5310 -88.6899 -35.6854 0.0000 0.0000 0.0000 -8.9387 5.3354 -55.3133 20.1877 19.9992 90.5488 1.4217 -21.6221 -24.5121 0.5447 -4.7285 -13.1357 0.0000 0.0000 0.0000 6.8164 5.6803 -54.1008 -19.7802 -19.9988 89.3575 -2.6575 13.5471 -29.5232 -1.8467 8.5391 -24.3639 -2.1842 -0.2593 19.2233 -0.7639 -1.0558 3.7255 0.6929 -0.5675 -6.7087 -5.7499 -6.3351 -12.2628 12.0853 -8.8097 5.8861 3.9685 -3.8680 4.5833 -0.0000 -0.0000 0.0000 13.1205 4.1415 -2.9999 23.1475 -34.2497 7.2211 12.4958 19.8602 -22.885 0.0 0.0 0.0 -7.1250 0.0 0.0 -16.9787 52.559 3.2341 -0.0000 -0.0000 0.0000 -14.2489 5.4057 -1.0914 -24.8846 -36.0858 -8.2219 -31.5263 0.677 -25.3809 0.0 0.0 0.0 7.1250 0.0 -0.0 -1.1109 0.8853 -1.0938
